<?xml version="1.0" encoding="UTF-8"?>
<svg xmlns="http://www.w3.org/2000/svg" xmlns:xlink="http://www.w3.org/1999/xlink" width="131px" height="41px" viewBox="0 0 130 41" version="1.1">
<defs>
<clipPath id="clip1">
  <path d="M 19 0.195312 L 25 0.195312 L 25 10 L 19 10 Z M 19 0.195312 "/>
</clipPath>
<clipPath id="clip2">
  <path d="M 4 0.195312 L 10 0.195312 L 10 10 L 4 10 Z M 4 0.195312 "/>
</clipPath>
<clipPath id="clip3">
  <path d="M 10 0.195312 L 19 0.195312 L 19 3 L 10 3 Z M 10 0.195312 "/>
</clipPath>
</defs>
<g id="surface1">
<g clip-path="url(#clip1)" clip-rule="nonzero">
<path style=" stroke:none;fill-rule:nonzero;fill:rgb(9.019608%,22.352941%,39.215686%);fill-opacity:1;" d="M 24.222656 9.957031 L 22.957031 9.957031 L 22.957031 4.367188 C 22.949219 2.992188 21.835938 1.878906 20.460938 1.878906 L 19.691406 1.878906 L 19.691406 0.59375 L 20.460938 0.59375 C 22.546875 0.59375 24.238281 2.28125 24.242188 4.367188 Z M 24.222656 9.957031 "/>
</g>
<g clip-path="url(#clip2)" clip-rule="nonzero">
<path style=" stroke:none;fill-rule:nonzero;fill:rgb(9.019608%,22.352941%,39.215686%);fill-opacity:1;" d="M 5.988281 9.957031 L 4.679688 9.957031 L 4.679688 4.367188 C 4.675781 3.367188 5.070312 2.40625 5.773438 1.699219 C 6.476562 0.992188 7.433594 0.59375 8.433594 0.59375 L 9.203125 0.59375 L 9.203125 1.878906 L 8.433594 1.878906 C 7.078125 1.90625 5.992188 3.011719 5.988281 4.367188 Z M 5.988281 9.957031 "/>
</g>
<g clip-path="url(#clip3)" clip-rule="nonzero">
<path style=" stroke:none;fill-rule:nonzero;fill:rgb(9.019608%,22.352941%,39.215686%);fill-opacity:1;" d="M 17.734375 2.191406 L 11.136719 2.191406 C 10.585938 2.191406 10.140625 1.742188 10.140625 1.191406 C 10.140625 0.640625 10.585938 0.195312 11.136719 0.195312 L 17.734375 0.195312 C 18.289062 0.195312 18.734375 0.640625 18.734375 1.191406 C 18.734375 1.742188 18.289062 2.191406 17.734375 2.191406 Z M 17.734375 2.191406 "/>
</g>
<path style=" stroke:none;fill-rule:nonzero;fill:rgb(9.019608%,22.352941%,39.215686%);fill-opacity:1;" d="M 5.988281 38.46875 L 5.988281 39.46875 C 5.945312 39.957031 6.183594 40.429688 6.601562 40.6875 C 7.015625 40.945312 7.542969 40.945312 7.960938 40.6875 C 8.378906 40.429688 8.617188 39.957031 8.574219 39.46875 L 8.574219 38.46875 Z M 5.988281 38.46875 "/>
<path style=" stroke:none;fill-rule:nonzero;fill:rgb(9.019608%,22.352941%,39.215686%);fill-opacity:1;" d="M 20.28125 38.46875 L 20.28125 39.46875 C 20.238281 39.957031 20.472656 40.429688 20.890625 40.6875 C 21.308594 40.945312 21.835938 40.945312 22.253906 40.6875 C 22.671875 40.429688 22.910156 39.957031 22.867188 39.46875 L 22.867188 38.46875 Z M 20.28125 38.46875 "/>
<path style=" stroke:none;fill-rule:nonzero;fill:rgb(9.019608%,22.352941%,39.215686%);fill-opacity:1;" d="M 10.628906 28.878906 L 2.296875 37.210938 C 2.824219 37.46875 3.40625 37.601562 3.992188 37.601562 L 15.269531 37.601562 Z M 10.628906 28.878906 "/>
<path style=" stroke:none;fill-rule:nonzero;fill:rgb(9.019608%,22.352941%,39.215686%);fill-opacity:1;" d="M 0 21.421875 L 0 31.921875 L 6.847656 25.066406 Z M 0 21.421875 "/>
<path style=" stroke:none;fill-rule:nonzero;fill:rgb(9.019608%,22.352941%,39.215686%);fill-opacity:1;" d="M 24.871094 8.726562 L 4.042969 8.726562 C 1.835938 8.726562 0.0507812 10.515625 0.0507812 12.71875 L 0.0507812 17.332031 L 1.667969 17.5625 L 2.824219 16.394531 C 3.234375 15.980469 3.902344 15.980469 4.3125 16.394531 C 4.722656 16.804688 4.722656 17.46875 4.3125 17.878906 L 12.835938 19.007812 L 15.96875 15.933594 C 16.570312 15.328125 17.238281 14.792969 17.964844 14.347656 C 18.6875 13.921875 19.457031 13.585938 20.261719 13.347656 C 20.867188 13.125 21.546875 13.273438 22.007812 13.726562 C 22.449219 14.195312 22.597656 14.863281 22.398438 15.476562 C 22.160156 16.277344 21.828125 17.050781 21.398438 17.769531 C 20.949219 18.496094 20.417969 19.167969 19.8125 19.765625 L 16.648438 22.929688 L 17.765625 31.433594 C 18.175781 31.023438 18.84375 31.023438 19.253906 31.433594 C 19.664062 31.84375 19.664062 32.511719 19.253906 32.921875 L 18.085938 34.078125 L 18.574219 37.601562 L 24.84375 37.601562 C 25.910156 37.601562 26.933594 37.175781 27.683594 36.414062 C 28.433594 35.65625 28.847656 34.628906 28.835938 33.558594 L 28.835938 12.769531 C 28.847656 11.707031 28.4375 10.683594 27.695312 9.925781 C 26.949219 9.167969 25.933594 8.734375 24.871094 8.726562 Z M 24.871094 8.726562 "/>
<path style=" stroke:none;fill-rule:nonzero;fill:rgb(9.019608%,22.352941%,39.215686%);fill-opacity:1;" d="M 89.726562 29.136719 L 89.726562 3 L 92.113281 3 L 92.113281 16.84375 L 105.578125 3 L 108.652344 3 L 98.0625 13.808594 L 109.898438 29.078125 L 106.90625 29.078125 L 96.464844 15.394531 L 92.09375 19.875 L 92.09375 29.078125 Z M 89.726562 29.136719 "/>
<path style=" stroke:none;fill-rule:nonzero;fill:rgb(9.019608%,22.352941%,39.215686%);fill-opacity:1;" d="M 110.636719 29.136719 L 110.636719 26.894531 L 126.757812 5.183594 L 111.785156 5.183594 L 111.785156 3 L 129.75 3 L 129.75 5.074219 L 113.492188 26.914062 L 129.980469 26.914062 L 129.980469 29.136719 Z M 110.636719 29.136719 "/>
<path style=" stroke:none;fill-rule:nonzero;fill:rgb(9.019608%,22.352941%,39.215686%);fill-opacity:1;" d="M 41.550781 14.835938 L 41.550781 4.097656 L 36.988281 4.097656 L 36.988281 3 L 47.300781 3 L 47.300781 4.097656 L 42.738281 4.097656 L 42.738281 14.835938 Z M 41.550781 14.835938 "/>
<path style=" stroke:none;fill-rule:nonzero;fill:rgb(9.019608%,22.352941%,39.215686%);fill-opacity:1;" d="M 60.582031 8.925781 C 60.667969 10.617188 60.054688 12.269531 58.886719 13.5 C 57.671875 14.648438 56.035156 15.25 54.367188 15.164062 C 52.679688 15.257812 51.027344 14.652344 49.792969 13.5 C 48.652344 12.257812 48.058594 10.609375 48.148438 8.925781 C 48.058594 7.242188 48.652344 5.597656 49.792969 4.355469 C 51.023438 3.195312 52.675781 2.59375 54.367188 2.6875 C 56.054688 2.597656 57.707031 3.203125 58.9375 4.367188 C 60.085938 5.597656 60.683594 7.246094 60.582031 8.925781 Z M 54.367188 13.988281 C 55.726562 14.066406 57.054688 13.574219 58.039062 12.628906 C 58.976562 11.625 59.460938 10.28125 59.375 8.90625 C 59.460938 7.535156 58.976562 6.1875 58.039062 5.183594 C 57.050781 4.25 55.722656 3.761719 54.367188 3.828125 C 53.003906 3.75 51.675781 4.242188 50.691406 5.183594 C 49.753906 6.1875 49.269531 7.535156 49.355469 8.90625 C 49.269531 10.28125 49.753906 11.625 50.691406 12.628906 C 51.671875 13.578125 53.003906 14.074219 54.367188 13.988281 Z M 54.367188 13.988281 "/>
<path style=" stroke:none;fill-rule:nonzero;fill:rgb(9.019608%,22.352941%,39.215686%);fill-opacity:1;" d="M 62.808594 3 L 64.015625 3 L 64.015625 10.265625 C 63.933594 11.308594 64.296875 12.339844 65.015625 13.097656 C 65.863281 13.765625 66.933594 14.082031 68.007812 13.988281 C 69.085938 14.074219 70.160156 13.746094 71.003906 13.070312 C 71.722656 12.3125 72.085938 11.285156 72 10.246094 L 72 3 L 73.210938 3 L 73.210938 10.574219 C 73.292969 11.847656 72.800781 13.09375 71.871094 13.96875 C 70.761719 14.84375 69.367188 15.269531 67.960938 15.164062 C 66.582031 15.257812 65.214844 14.839844 64.125 13.988281 C 63.203125 13.085938 62.722656 11.824219 62.808594 10.535156 Z M 62.808594 3 "/>
<path style=" stroke:none;fill-rule:nonzero;fill:rgb(9.019608%,22.352941%,39.215686%);fill-opacity:1;" d="M 75.914062 14.835938 L 75.914062 3 L 81.59375 3 C 82.707031 2.917969 83.820312 3.199219 84.757812 3.808594 C 85.480469 4.375 85.882812 5.261719 85.835938 6.183594 C 85.871094 6.839844 85.699219 7.492188 85.347656 8.050781 C 84.960938 8.585938 84.410156 8.984375 83.777344 9.175781 C 84.273438 9.210938 84.734375 9.429688 85.078125 9.785156 C 85.398438 10.277344 85.582031 10.84375 85.605469 11.433594 C 85.605469 11.742188 85.675781 12.140625 85.714844 12.699219 C 85.691406 13.457031 85.851562 14.207031 86.183594 14.886719 L 84.835938 14.886719 C 84.65625 14.269531 84.558594 13.632812 84.546875 12.988281 C 84.496094 12.191406 84.457031 11.652344 84.4375 11.433594 C 84.414062 10.933594 84.164062 10.46875 83.757812 10.175781 C 83.253906 9.890625 82.671875 9.757812 82.09375 9.796875 L 77.101562 9.796875 L 77.101562 14.875 Z M 81.304688 4.097656 L 77.089844 4.097656 L 77.089844 8.636719 L 81.445312 8.636719 C 82.292969 8.703125 83.140625 8.519531 83.890625 8.109375 C 84.414062 7.6875 84.691406 7.03125 84.628906 6.363281 C 84.6875 5.695312 84.410156 5.042969 83.890625 4.625 C 83.09375 4.207031 82.199219 4.023438 81.304688 4.097656 Z M 81.304688 4.097656 "/>
<path style=" stroke:none;fill-rule:nonzero;fill:rgb(9.019608%,22.352941%,39.215686%);fill-opacity:1;" d="M 47.546875 21.382812 C 47.363281 20.503906 46.855469 19.726562 46.121094 19.207031 C 45.300781 18.671875 44.335938 18.40625 43.355469 18.449219 C 42.039062 18.375 40.75 18.851562 39.792969 19.757812 C 38.890625 20.734375 38.421875 22.039062 38.496094 23.371094 C 38.429688 24.6875 38.890625 25.980469 39.773438 26.960938 C 40.652344 27.867188 41.878906 28.351562 43.136719 28.289062 C 44.210938 28.324219 45.265625 28 46.132812 27.363281 C 46.949219 26.730469 47.507812 25.828125 47.707031 24.816406 L 48.90625 24.816406 C 48.6875 26.125 47.996094 27.304688 46.96875 28.140625 C 45.890625 28.988281 44.546875 29.429688 43.175781 29.386719 C 41.597656 29.476562 40.050781 28.894531 38.925781 27.78125 C 37.824219 26.59375 37.25 25.007812 37.339844 23.390625 C 37.238281 21.757812 37.8125 20.15625 38.925781 18.957031 C 40.121094 17.835938 41.726562 17.253906 43.367188 17.351562 C 44.660156 17.296875 45.933594 17.671875 46.988281 18.417969 C 47.9375 19.144531 48.550781 20.226562 48.6875 21.414062 Z M 47.546875 21.382812 "/>
<path style=" stroke:none;fill-rule:nonzero;fill:rgb(9.019608%,22.352941%,39.215686%);fill-opacity:1;" d="M 62.300781 23.371094 C 62.386719 25.003906 61.808594 26.601562 60.691406 27.800781 C 59.496094 28.917969 57.898438 29.5 56.261719 29.40625 C 54.628906 29.5 53.027344 28.917969 51.832031 27.800781 C 50.710938 26.605469 50.128906 25.003906 50.222656 23.371094 C 50.128906 21.734375 50.710938 20.132812 51.832031 18.9375 C 53.027344 17.820312 54.628906 17.238281 56.261719 17.332031 C 57.894531 17.246094 59.492188 17.824219 60.691406 18.9375 C 61.8125 20.132812 62.394531 21.734375 62.300781 23.371094 Z M 56.261719 28.359375 C 57.578125 28.429688 58.867188 27.953125 59.824219 27.042969 C 60.730469 26.066406 61.199219 24.761719 61.121094 23.429688 C 61.195312 22.09375 60.726562 20.785156 59.824219 19.796875 C 58.867188 18.890625 57.578125 18.417969 56.261719 18.488281 C 54.9375 18.417969 53.636719 18.890625 52.667969 19.796875 C 51.761719 20.78125 51.296875 22.09375 51.382812 23.429688 C 51.300781 24.757812 51.765625 26.0625 52.667969 27.042969 C 53.644531 27.9375 54.941406 28.398438 56.261719 28.320312 Z M 56.261719 28.359375 "/>
<path style=" stroke:none;fill-rule:nonzero;fill:rgb(9.019608%,22.352941%,39.215686%);fill-opacity:1;" d="M 68.628906 17.621094 C 69.632812 17.59375 70.636719 17.679688 71.621094 17.871094 C 73.0625 18.164062 74.246094 19.183594 74.746094 20.566406 C 75.058594 21.464844 75.207031 22.414062 75.183594 23.371094 C 75.199219 24.3125 75.050781 25.253906 74.734375 26.144531 C 74.457031 26.890625 73.976562 27.550781 73.347656 28.039062 C 72.835938 28.429688 72.242188 28.707031 71.613281 28.847656 C 70.625 29.03125 69.621094 29.113281 68.617188 29.089844 L 64.425781 29.089844 L 64.425781 17.621094 Z M 68.378906 18.667969 L 65.59375 18.667969 L 65.59375 28.03125 L 68.589844 28.03125 C 69.371094 28.042969 70.152344 27.984375 70.921875 27.851562 C 71.429688 27.753906 71.914062 27.566406 72.351562 27.292969 C 72.910156 26.925781 73.335938 26.394531 73.578125 25.773438 C 73.871094 24.984375 74.007812 24.144531 73.976562 23.300781 C 74.003906 22.480469 73.867188 21.664062 73.578125 20.894531 C 73.332031 20.285156 72.917969 19.757812 72.378906 19.378906 C 71.933594 19.101562 71.441406 18.914062 70.921875 18.828125 C 70.082031 18.699219 69.230469 18.644531 68.378906 18.667969 Z M 68.378906 18.667969 "/>
<path style=" stroke:none;fill-rule:nonzero;fill:rgb(9.019608%,22.352941%,39.215686%);fill-opacity:1;" d="M 77.339844 29.136719 L 77.339844 17.621094 L 86.164062 17.621094 L 86.164062 18.6875 L 78.480469 18.6875 L 78.480469 22.679688 L 85.566406 22.679688 L 85.566406 23.75 L 78.480469 23.75 L 78.480469 27.992188 L 86.164062 27.992188 L 86.164062 29.136719 Z M 77.339844 29.136719 "/>
<path style=" stroke:none;fill-rule:nonzero;fill:rgb(76.862745%,19.215686%,13.333333%);fill-opacity:1;" d="M 40.640625 34.269531 L 39.144531 34.269531 L 39.144531 38.519531 L 38.585938 38.519531 L 38.585938 34.269531 L 37.097656 34.269531 L 37.097656 33.757812 L 40.640625 33.757812 Z M 40.640625 34.269531 "/>
<path style=" stroke:none;fill-rule:nonzero;fill:rgb(76.862745%,19.215686%,13.333333%);fill-opacity:1;" d="M 40.820312 36.125 C 40.777344 35.476562 40.957031 34.832031 41.332031 34.296875 C 41.679688 33.871094 42.207031 33.636719 42.757812 33.660156 C 43.054688 33.65625 43.351562 33.710938 43.625 33.828125 C 43.863281 33.945312 44.070312 34.117188 44.226562 34.328125 C 44.402344 34.558594 44.527344 34.824219 44.585938 35.105469 C 44.65625 35.433594 44.695312 35.769531 44.695312 36.105469 C 44.734375 36.753906 44.554688 37.398438 44.183594 37.929688 C 43.835938 38.367188 43.296875 38.609375 42.738281 38.582031 C 42.4375 38.582031 42.136719 38.523438 41.859375 38.402344 C 41.625 38.285156 41.417969 38.117188 41.261719 37.910156 C 41.09375 37.675781 40.980469 37.40625 40.921875 37.121094 C 40.863281 36.792969 40.832031 36.460938 40.820312 36.125 Z M 41.421875 36.125 C 41.417969 36.378906 41.441406 36.632812 41.488281 36.882812 C 41.527344 37.105469 41.609375 37.320312 41.730469 37.511719 C 41.941406 37.863281 42.316406 38.082031 42.726562 38.089844 C 43.117188 38.105469 43.488281 37.929688 43.726562 37.621094 C 44.023438 37.183594 44.160156 36.652344 44.113281 36.125 C 44.117188 35.875 44.09375 35.628906 44.046875 35.386719 C 44.007812 35.164062 43.925781 34.949219 43.804688 34.757812 C 43.703125 34.582031 43.554688 34.4375 43.375 34.339844 C 43.195312 34.230469 42.988281 34.175781 42.777344 34.179688 C 42.386719 34.160156 42.011719 34.335938 41.78125 34.648438 C 41.480469 35.078125 41.351562 35.605469 41.421875 36.125 Z M 41.421875 36.125 "/>
<path style=" stroke:none;fill-rule:nonzero;fill:rgb(76.862745%,19.215686%,13.333333%);fill-opacity:1;" d="M 48.417969 33.757812 L 48.90625 33.757812 L 48.90625 36.945312 C 48.910156 37.191406 48.875 37.4375 48.796875 37.671875 C 48.734375 37.867188 48.628906 38.046875 48.488281 38.191406 C 48.34375 38.320312 48.179688 38.417969 47.996094 38.480469 C 47.789062 38.546875 47.570312 38.578125 47.347656 38.570312 C 46.894531 38.597656 46.445312 38.460938 46.082031 38.191406 C 45.777344 37.886719 45.625 37.460938 45.664062 37.035156 L 45.664062 33.730469 L 46.210938 33.730469 L 46.210938 36.785156 C 46.207031 36.984375 46.230469 37.1875 46.28125 37.382812 C 46.316406 37.535156 46.394531 37.675781 46.5 37.792969 C 46.597656 37.898438 46.722656 37.972656 46.859375 38.011719 C 47.019531 38.058594 47.183594 38.082031 47.347656 38.082031 C 47.644531 38.109375 47.9375 37.988281 48.128906 37.761719 C 48.316406 37.464844 48.40625 37.113281 48.378906 36.765625 Z M 48.417969 33.757812 "/>
<path style=" stroke:none;fill-rule:nonzero;fill:rgb(76.862745%,19.215686%,13.333333%);fill-opacity:1;" d="M 50.113281 33.800781 L 50.710938 33.730469 C 50.933594 33.730469 51.132812 33.730469 51.332031 33.730469 C 51.535156 33.726562 51.742188 33.75 51.941406 33.800781 C 52.117188 33.832031 52.285156 33.90625 52.429688 34.019531 C 52.558594 34.132812 52.671875 34.269531 52.757812 34.417969 C 52.996094 34.921875 52.925781 35.519531 52.578125 35.957031 C 52.371094 36.1875 52.101562 36.347656 51.800781 36.425781 L 52.140625 36.675781 L 53.316406 38.570312 L 52.648438 38.570312 L 51.332031 36.515625 L 50.664062 36.40625 L 50.664062 38.570312 L 50.113281 38.570312 Z M 51.332031 34.199219 L 50.980469 34.199219 C 50.921875 34.1875 50.863281 34.1875 50.800781 34.199219 C 50.734375 34.199219 50.710938 34.199219 50.664062 34.199219 L 50.664062 35.957031 L 51.203125 35.957031 C 51.476562 35.957031 51.746094 35.882812 51.980469 35.734375 C 52.1875 35.558594 52.304688 35.292969 52.289062 35.015625 C 52.289062 34.792969 52.203125 34.578125 52.050781 34.417969 C 51.851562 34.246094 51.589844 34.164062 51.332031 34.199219 Z M 51.332031 34.199219 "/>
<path style=" stroke:none;fill-rule:nonzero;fill:rgb(76.862745%,19.215686%,13.333333%);fill-opacity:1;" d="M 54.296875 33.757812 L 54.894531 33.757812 L 54.894531 38.519531 L 54.296875 38.519531 Z M 54.296875 33.757812 "/>
<path style=" stroke:none;fill-rule:nonzero;fill:rgb(76.862745%,19.215686%,13.333333%);fill-opacity:1;" d="M 58.289062 37.324219 C 58.304688 37.148438 58.238281 36.972656 58.109375 36.855469 C 57.992188 36.722656 57.847656 36.617188 57.6875 36.542969 L 57.128906 36.273438 C 56.9375 36.191406 56.75 36.09375 56.570312 35.984375 C 56.402344 35.875 56.257812 35.726562 56.152344 35.554688 C 56.027344 35.367188 55.964844 35.144531 55.972656 34.917969 C 55.960938 34.578125 56.097656 34.246094 56.351562 34.019531 C 56.660156 33.78125 57.046875 33.664062 57.441406 33.691406 C 57.695312 33.6875 57.949219 33.707031 58.199219 33.75 C 58.382812 33.78125 58.5625 33.835938 58.738281 33.910156 L 58.558594 34.417969 C 58.40625 34.355469 58.25 34.304688 58.089844 34.269531 C 57.863281 34.21875 57.632812 34.195312 57.398438 34.199219 C 57.160156 34.183594 56.921875 34.253906 56.730469 34.398438 C 56.59375 34.515625 56.511719 34.6875 56.5 34.867188 C 56.488281 35.035156 56.554688 35.203125 56.679688 35.316406 C 56.8125 35.433594 56.957031 35.539062 57.109375 35.625 L 57.660156 35.894531 C 57.851562 35.984375 58.039062 36.085938 58.21875 36.203125 C 58.390625 36.316406 58.535156 36.460938 58.648438 36.632812 C 58.765625 36.816406 58.828125 37.035156 58.828125 37.253906 C 58.824219 37.445312 58.78125 37.632812 58.707031 37.8125 C 58.644531 37.976562 58.535156 38.121094 58.398438 38.230469 C 58.246094 38.351562 58.074219 38.441406 57.890625 38.5 C 57.664062 38.570312 57.433594 38.597656 57.199219 38.589844 C 56.914062 38.601562 56.628906 38.570312 56.351562 38.5 C 56.171875 38.457031 56 38.398438 55.832031 38.320312 L 56.03125 37.8125 C 56.183594 37.886719 56.339844 37.945312 56.5 37.992188 C 56.730469 38.054688 56.964844 38.085938 57.199219 38.082031 C 57.339844 38.074219 57.480469 38.058594 57.621094 38.03125 C 57.738281 38.003906 57.851562 37.960938 57.957031 37.902344 C 58.050781 37.835938 58.125 37.75 58.179688 37.652344 C 58.257812 37.5625 58.300781 37.441406 58.289062 37.324219 Z M 58.289062 37.324219 "/>
<path style=" stroke:none;fill-rule:nonzero;fill:rgb(76.862745%,19.215686%,13.333333%);fill-opacity:1;" d="M 63.417969 35.335938 L 63.476562 34.628906 L 63.207031 35.265625 L 61.960938 37.414062 L 61.78125 37.414062 L 60.472656 35.246094 L 60.222656 34.597656 L 60.3125 35.316406 L 60.3125 38.519531 L 59.773438 38.519531 L 59.773438 33.757812 L 60.203125 33.757812 L 61.691406 36.183594 L 61.910156 36.714844 L 62.109375 36.183594 L 63.539062 33.757812 L 63.976562 33.757812 L 63.976562 38.519531 L 63.429688 38.519531 Z M 63.417969 35.335938 "/>
<path style=" stroke:none;fill-rule:nonzero;fill:rgb(76.862745%,19.215686%,13.333333%);fill-opacity:1;" d="M 68.789062 33.757812 L 69.257812 33.757812 L 69.257812 39.417969 L 68.789062 39.417969 Z M 68.789062 33.757812 "/>
<path style=" stroke:none;fill-rule:nonzero;fill:rgb(76.862745%,19.215686%,13.333333%);fill-opacity:1;" d="M 74.855469 35.40625 L 74.507812 34.707031 L 74.578125 35.40625 L 74.578125 38.519531 L 74.046875 38.519531 L 74.046875 33.691406 L 74.355469 33.691406 L 76.632812 36.875 L 76.980469 37.523438 L 76.921875 36.875 L 76.921875 33.78125 L 77.449219 33.78125 L 77.449219 38.609375 L 77.140625 38.609375 Z M 74.855469 35.40625 "/>
<path style=" stroke:none;fill-rule:nonzero;fill:rgb(76.862745%,19.215686%,13.333333%);fill-opacity:1;" d="M 78.609375 33.757812 L 81.195312 33.757812 L 81.195312 34.269531 L 79.199219 34.269531 L 79.199219 35.824219 L 81.042969 35.824219 L 81.042969 36.34375 L 79.167969 36.34375 L 79.167969 38.03125 L 81.242188 38.03125 L 81.242188 38.550781 L 78.609375 38.550781 Z M 78.609375 33.757812 "/>
<path style=" stroke:none;fill-rule:nonzero;fill:rgb(76.862745%,19.215686%,13.333333%);fill-opacity:1;" d="M 83.199219 36.964844 L 83.308594 37.742188 L 83.429688 36.945312 L 84.425781 33.757812 L 84.695312 33.757812 L 85.695312 36.945312 L 85.804688 37.722656 L 85.933594 36.921875 L 86.742188 33.730469 L 87.273438 33.730469 L 85.933594 38.570312 L 85.625 38.570312 L 84.628906 35.386719 L 84.515625 34.667969 L 84.40625 35.40625 L 83.410156 38.589844 L 83.089844 38.589844 L 81.734375 33.757812 L 82.332031 33.757812 Z M 83.199219 36.964844 "/>
<path style=" stroke:none;fill-rule:nonzero;fill:rgb(76.862745%,19.215686%,13.333333%);fill-opacity:1;" d="M 90.066406 37.324219 C 90.078125 37.148438 90.011719 36.976562 89.886719 36.855469 C 89.765625 36.726562 89.625 36.621094 89.46875 36.542969 L 88.910156 36.273438 C 88.714844 36.191406 88.53125 36.09375 88.351562 35.984375 C 88.179688 35.875 88.039062 35.726562 87.929688 35.554688 C 87.804688 35.367188 87.742188 35.144531 87.75 34.917969 C 87.738281 34.578125 87.878906 34.246094 88.128906 34.019531 C 88.445312 33.777344 88.839844 33.660156 89.238281 33.691406 C 89.492188 33.6875 89.746094 33.707031 89.996094 33.75 C 90.183594 33.78125 90.363281 33.835938 90.535156 33.910156 L 90.355469 34.417969 C 90.203125 34.355469 90.046875 34.304688 89.886719 34.269531 C 89.660156 34.21875 89.429688 34.195312 89.199219 34.199219 C 88.957031 34.183594 88.722656 34.253906 88.53125 34.398438 C 88.382812 34.511719 88.300781 34.683594 88.300781 34.867188 C 88.289062 35.035156 88.355469 35.203125 88.480469 35.316406 C 88.609375 35.433594 88.753906 35.539062 88.910156 35.625 C 89.089844 35.714844 89.257812 35.804688 89.46875 35.894531 C 89.660156 35.984375 89.84375 36.085938 90.015625 36.203125 C 90.1875 36.316406 90.335938 36.460938 90.445312 36.632812 C 90.570312 36.816406 90.632812 37.03125 90.625 37.253906 C 90.621094 37.445312 90.582031 37.632812 90.515625 37.8125 C 90.441406 37.972656 90.332031 38.117188 90.195312 38.230469 C 90.042969 38.351562 89.871094 38.441406 89.6875 38.5 C 89.464844 38.570312 89.230469 38.597656 89 38.589844 C 88.714844 38.601562 88.425781 38.570312 88.152344 38.5 C 87.976562 38.457031 87.804688 38.398438 87.640625 38.320312 L 87.839844 37.8125 C 87.988281 37.886719 88.140625 37.945312 88.300781 37.992188 C 88.53125 38.042969 88.761719 38.074219 89 38.082031 C 89.140625 38.074219 89.28125 38.058594 89.417969 38.03125 C 89.535156 38.003906 89.652344 37.960938 89.757812 37.902344 C 89.851562 37.839844 89.925781 37.753906 89.976562 37.652344 C 90.042969 37.554688 90.074219 37.441406 90.066406 37.324219 Z M 90.066406 37.324219 "/>
<path style=" stroke:none;fill-rule:nonzero;fill:rgb(76.862745%,19.215686%,13.333333%);fill-opacity:1;" d="M 95.167969 33.757812 L 95.636719 33.757812 L 95.636719 39.417969 L 95.167969 39.417969 Z M 95.167969 33.757812 "/>
<path style=" stroke:none;fill-rule:nonzero;fill:rgb(76.862745%,19.215686%,13.333333%);fill-opacity:1;" d="M 101.273438 35.40625 L 100.894531 34.707031 L 100.957031 35.40625 L 100.957031 38.519531 L 100.425781 38.519531 L 100.425781 33.691406 L 100.734375 33.691406 L 103.011719 36.875 L 103.371094 37.523438 L 103.300781 36.875 L 103.300781 33.78125 L 103.839844 33.78125 L 103.839844 38.609375 L 103.550781 38.609375 Z M 101.273438 35.40625 "/>
<path style=" stroke:none;fill-rule:nonzero;fill:rgb(76.862745%,19.215686%,13.333333%);fill-opacity:1;" d="M 105 33.757812 L 107.582031 33.757812 L 107.582031 34.269531 L 105.585938 34.269531 L 105.585938 35.824219 L 107.433594 35.824219 L 107.433594 36.34375 L 105.585938 36.34375 L 105.585938 38.03125 L 107.652344 38.03125 L 107.652344 38.550781 L 105 38.550781 Z M 105 33.757812 "/>
<path style=" stroke:none;fill-rule:nonzero;fill:rgb(76.862745%,19.215686%,13.333333%);fill-opacity:1;" d="M 111.726562 34.269531 L 110.226562 34.269531 L 110.226562 38.519531 L 109.679688 38.519531 L 109.679688 34.269531 L 108.183594 34.269531 L 108.183594 33.757812 L 111.726562 33.757812 Z M 111.726562 34.269531 "/>
<path style=" stroke:none;fill-rule:nonzero;fill:rgb(76.862745%,19.215686%,13.333333%);fill-opacity:1;" d="M 113.351562 36.964844 L 113.460938 37.742188 L 113.570312 36.945312 L 114.570312 33.757812 L 114.777344 33.757812 L 115.777344 36.945312 L 115.886719 37.722656 L 116.015625 36.921875 L 116.824219 33.730469 L 117.355469 33.730469 L 116.015625 38.570312 L 115.777344 38.570312 L 114.777344 35.386719 L 114.667969 34.667969 L 114.558594 35.40625 L 113.5625 38.589844 L 113.253906 38.589844 L 111.894531 33.757812 L 112.492188 33.757812 Z M 113.351562 36.964844 "/>
<path style=" stroke:none;fill-rule:nonzero;fill:rgb(76.862745%,19.215686%,13.333333%);fill-opacity:1;" d="M 117.773438 36.125 C 117.734375 35.476562 117.914062 34.832031 118.28125 34.296875 C 118.636719 33.871094 119.171875 33.632812 119.730469 33.660156 C 120.03125 33.652344 120.332031 33.710938 120.609375 33.828125 C 120.84375 33.949219 121.046875 34.117188 121.207031 34.328125 C 121.378906 34.558594 121.496094 34.824219 121.554688 35.105469 C 121.632812 35.433594 121.671875 35.769531 121.675781 36.105469 C 121.71875 36.753906 121.535156 37.402344 121.15625 37.929688 C 120.808594 38.371094 120.269531 38.613281 119.710938 38.582031 C 119.410156 38.582031 119.113281 38.519531 118.839844 38.402344 C 118.601562 38.292969 118.398438 38.125 118.242188 37.910156 C 118.070312 37.679688 117.949219 37.414062 117.882812 37.132812 C 117.796875 36.804688 117.761719 36.464844 117.773438 36.125 Z M 118.351562 36.125 C 118.347656 36.378906 118.375 36.636719 118.441406 36.882812 C 118.476562 37.109375 118.5625 37.324219 118.691406 37.511719 C 118.789062 37.6875 118.933594 37.835938 119.109375 37.929688 C 119.296875 38.03125 119.5 38.085938 119.710938 38.089844 C 120.097656 38.101562 120.46875 37.925781 120.707031 37.621094 C 120.980469 37.183594 121.101562 36.667969 121.058594 36.15625 C 121.066406 35.90625 121.035156 35.65625 120.96875 35.417969 C 120.929688 35.191406 120.847656 34.980469 120.726562 34.789062 C 120.625 34.613281 120.476562 34.46875 120.296875 34.367188 C 120.117188 34.257812 119.910156 34.203125 119.699219 34.207031 C 119.308594 34.183594 118.929688 34.359375 118.703125 34.679688 C 118.410156 35.101562 118.277344 35.613281 118.324219 36.125 Z M 118.351562 36.125 "/>
<path style=" stroke:none;fill-rule:nonzero;fill:rgb(76.862745%,19.215686%,13.333333%);fill-opacity:1;" d="M 122.605469 33.800781 L 123.203125 33.730469 C 123.421875 33.730469 123.621094 33.730469 123.832031 33.730469 C 124.035156 33.726562 124.234375 33.75 124.429688 33.800781 C 124.609375 33.828125 124.777344 33.90625 124.917969 34.019531 C 125.050781 34.132812 125.160156 34.269531 125.25 34.417969 C 125.347656 34.613281 125.394531 34.828125 125.390625 35.046875 C 125.402344 35.378906 125.289062 35.699219 125.078125 35.957031 C 124.867188 36.183594 124.59375 36.347656 124.289062 36.425781 L 124.628906 36.675781 L 125.808594 38.570312 L 125.140625 38.570312 L 123.832031 36.515625 L 123.152344 36.40625 L 123.152344 38.570312 L 122.605469 38.570312 Z M 123.832031 34.199219 L 123.472656 34.199219 C 123.414062 34.1875 123.351562 34.1875 123.292969 34.199219 C 123.222656 34.199219 123.203125 34.199219 123.152344 34.199219 L 123.152344 35.957031 L 123.691406 35.957031 C 123.96875 35.957031 124.238281 35.882812 124.46875 35.734375 C 124.683594 35.558594 124.800781 35.292969 124.789062 35.015625 C 124.789062 34.792969 124.699219 34.578125 124.539062 34.417969 C 124.339844 34.257812 124.085938 34.179688 123.832031 34.199219 Z M 123.832031 34.199219 "/>
<path style=" stroke:none;fill-rule:nonzero;fill:rgb(76.862745%,19.215686%,13.333333%);fill-opacity:1;" d="M 127.523438 36.316406 L 127.214844 36.316406 L 127.214844 38.519531 L 126.65625 38.519531 L 126.65625 33.757812 L 127.214844 33.757812 L 127.214844 35.984375 L 127.523438 35.894531 L 129.132812 33.78125 L 129.75 33.78125 L 128.164062 35.824219 L 127.875 36.046875 L 128.234375 36.316406 L 129.96875 38.550781 L 129.261719 38.550781 Z M 127.523438 36.316406 "/>
<path style=" stroke:none;fill-rule:evenodd;fill:rgb(76.862745%,19.215686%,13.333333%);fill-opacity:1;" d="M 1.386719 36.613281 C 1.667969 36.84375 1.972656 37.046875 2.296875 37.210938 L 10.628906 28.878906 L 15.3125 37.601562 L 18.605469 37.601562 L 18.113281 34.078125 L 19.28125 32.921875 C 19.695312 32.511719 19.695312 31.84375 19.28125 31.433594 C 18.871094 31.023438 18.207031 31.023438 17.796875 31.433594 L 16.628906 22.941406 L 19.792969 19.777344 C 20.398438 19.175781 20.929688 18.507812 21.378906 17.78125 C 21.804688 17.058594 22.140625 16.289062 22.378906 15.484375 C 22.585938 14.859375 22.425781 14.167969 21.957031 13.699219 C 21.5 13.242188 20.816406 13.097656 20.210938 13.320312 C 19.40625 13.554688 18.636719 13.890625 17.914062 14.316406 C 17.191406 14.765625 16.519531 15.296875 15.917969 15.902344 L 12.753906 19.066406 L 4.230469 17.96875 C 4.640625 17.558594 4.640625 16.894531 4.230469 16.484375 C 3.820312 16.070312 3.15625 16.070312 2.746094 16.484375 L 1.617188 17.609375 L 0 17.382812 L 0 33.898438 C -0.0234375 34.398438 0.0664062 34.898438 0.269531 35.355469 C 0.53125 35.863281 0.914062 36.292969 1.386719 36.613281 Z M 0 21.421875 L 0 31.921875 L 6.847656 25.066406 Z M 0 21.421875 "/>
</g>
</svg>
